<svg version="1.1" id="Layer_1" xmlns="http://www.w3.org/2000/svg" xmlns:xlink="http://www.w3.org/1999/xlink" x="0px" y="0px"
	 width="100%" viewBox="0 0 329 146" enable-background="new 0 0 329 146" xml:space="preserve">
<path fill="#FEFEFE" opacity="1.000000" stroke="none" 
	d="
M204.000000,147.000000 
	C136.000015,147.000000 68.500015,147.000000 1.000018,147.000000 
	C1.000012,98.333344 1.000012,49.666695 1.000006,1.000031 
	C110.666634,1.000021 220.333267,1.000021 329.999939,1.000010 
	C329.999939,49.666637 329.999939,98.333275 329.999969,146.999954 
	C288.166656,147.000000 246.333328,147.000000 204.000000,147.000000 
M237.432846,80.645790 
	C228.538467,63.813656 208.951050,56.874260 191.857880,64.499565 
	C174.999283,72.020226 166.617630,91.467278 173.176620,108.747345 
	C177.976227,121.392143 187.287445,129.146286 200.707733,131.341721 
	C214.881500,133.660431 226.031128,128.112244 235.388016,117.989670 
	C235.599792,121.894997 235.811554,125.800331 236.023605,129.710785 
	C245.785904,129.710785 255.037674,129.710785 264.836853,129.710785 
	C264.836853,127.481705 264.835815,125.527397 264.837036,123.573090 
	C264.842712,114.580879 264.860413,105.588654 264.849213,96.596466 
	C264.844910,93.156715 266.216675,90.406677 269.819519,90.384232 
	C273.397064,90.361923 274.949829,93.089546 274.981812,96.511223 
	C275.039337,102.672340 275.012543,108.834267 275.016846,114.995850 
	C275.020264,119.917061 275.017548,124.838272 275.017548,129.732666 
	C285.014069,129.732666 294.277435,129.732666 303.627563,129.732666 
	C303.627563,116.045219 304.686462,102.508919 303.348114,89.213936 
	C301.821106,74.044868 291.287628,64.453117 276.439453,61.771767 
	C260.104584,58.821941 247.949020,64.917244 237.432846,80.645790 
M115.195343,79.083633 
	C115.195343,94.868156 115.195343,110.652679 115.195343,126.716866 
	C128.934296,126.716866 141.997391,126.716866 155.153198,126.716866 
	C155.153198,118.803734 155.153198,111.117752 155.153198,103.478600 
	C138.689728,101.422195 126.707062,93.500053 120.706139,78.469307 
	C114.664169,63.335751 117.660393,49.127991 128.404846,36.199997 
	C111.963081,30.968822 96.877655,31.041643 83.224350,42.831120 
	C74.443054,34.687702 63.953701,32.229404 52.287815,32.972214 
	C30.260870,34.374752 13.932622,48.315895 12.138676,70.094856 
	C10.612602,88.621750 11.450686,107.343559 11.272565,125.979416 
	C11.270161,126.230965 11.657646,126.486237 11.834087,126.703911 
	C24.796101,126.703911 37.723351,126.703911 51.116531,126.703911 
	C51.116531,124.618370 51.116646,122.826271 51.116520,121.034172 
	C51.115623,108.374115 51.079918,95.713875 51.150200,83.054214 
	C51.161087,81.092995 51.093929,78.763786 52.075985,77.271446 
	C53.223373,75.527855 55.533508,73.399132 57.245132,73.478020 
	C59.235088,73.569756 61.594696,75.530396 62.904514,77.327957 
	C63.933327,78.739868 63.839882,81.135422 63.850822,83.096214 
	C63.922352,95.922447 63.886513,108.749275 63.885792,121.575912 
	C63.885693,123.312889 63.885784,125.049866 63.885784,126.639786 
	C77.306084,126.639786 89.876678,126.639786 102.807571,126.639786 
	C102.807571,124.472763 102.806625,122.666290 102.807739,120.859825 
	C102.815910,107.533463 102.843224,94.207062 102.820976,80.880753 
	C102.814690,77.114960 104.258247,74.182182 108.032623,73.383270 
	C111.716637,72.603500 113.949509,74.811829 115.195343,79.083633 
M177.583466,34.856808 
	C162.042023,24.776369 143.578842,26.852444 131.387314,40.051281 
	C121.732567,50.503746 119.476929,66.209709 125.786552,79.049232 
	C132.211304,92.123009 146.325546,100.225182 160.440369,98.778511 
	C163.385696,98.476631 166.667862,98.797043 166.896927,93.926941 
	C167.607819,78.812393 175.376633,68.023323 188.617310,61.202194 
	C191.826691,59.548836 192.429169,57.900421 191.471909,54.613064 
	C189.152740,46.648678 184.792389,40.210350 177.583466,34.856808 
M283.041901,30.435854 
	C280.254181,29.588789 277.466461,28.741724 274.371979,27.801455 
	C273.069397,33.530674 271.913391,38.615128 270.723419,43.848824 
	C273.766724,44.542080 276.302917,45.797569 278.578857,45.432148 
	C280.536133,45.117901 283.764069,42.834545 283.672668,41.631371 
	C283.460175,38.834484 283.670746,36.484264 284.829193,33.963814 
	C285.145111,33.276443 284.079163,31.953928 283.041901,30.435854 
M309.318176,51.922585 
	C309.446960,54.276608 309.577209,56.630554 309.703857,58.984684 
	C309.771759,60.246365 309.937408,61.520092 309.797455,62.758846 
	C309.773773,62.968903 307.987213,63.376587 307.765839,63.097485 
	C306.902222,62.008659 306.144196,60.743248 305.721741,59.423515 
	C305.301392,58.110374 305.330780,56.653267 305.072388,54.506557 
	C301.581238,57.610813 302.176422,60.302830 303.683350,62.813148 
	C305.279938,65.472824 307.363831,67.776886 310.972931,66.104965 
	C314.462067,64.488602 313.754333,61.703777 312.838409,58.858387 
	C312.327576,57.271351 312.009003,55.622410 311.603790,54.001358 
	C312.270508,53.761784 312.937225,53.522205 313.603912,53.282631 
	C314.707428,55.827755 315.810913,58.372879 316.914429,60.918003 
	C317.530731,60.735313 318.147034,60.552620 318.763306,60.369930 
	C318.138367,57.783810 318.033752,54.894539 316.750549,52.691898 
	C315.299225,50.200672 312.593140,49.482384 309.318176,51.922585 
M248.370178,37.303429 
	C248.370178,38.767967 248.370178,40.232506 248.370178,42.714375 
	C240.299606,33.321499 240.299606,33.321499 237.737381,34.457066 
	C240.812729,38.247826 243.771683,42.029945 246.915268,45.651806 
	C247.516602,46.344635 248.901154,46.770607 249.819031,46.630344 
	C250.429688,46.537025 251.272034,45.230278 251.292557,44.447823 
	C251.425262,39.384502 251.360519,34.316006 251.360519,29.249207 
	C250.586624,29.203947 249.812714,29.158686 249.038818,29.113426 
	C248.802383,31.551937 248.565964,33.990448 248.370178,37.303429 
M292.512085,52.091259 
	C293.823883,52.814072 295.135681,53.536888 296.625305,54.357693 
	C297.753174,50.399765 289.529175,49.807858 293.886108,45.463055 
	C296.406281,46.436790 298.397156,47.206005 300.388000,47.975224 
	C300.589722,47.444340 300.791412,46.913456 300.993103,46.382576 
	C299.316895,45.106270 297.640717,43.829967 295.855560,42.470703 
	C298.989410,36.081184 301.956757,45.000031 305.955963,41.448532 
	C302.798553,39.311409 299.895203,37.346275 296.702698,35.185429 
	C293.583954,39.894741 290.770233,44.143490 287.817535,48.602047 
	C289.297241,49.711742 290.599915,50.688702 292.512085,52.091259 
M261.045532,38.384705 
	C261.082916,39.213669 260.929810,40.112843 261.203217,40.854832 
	C261.594635,41.916965 262.297729,42.864231 262.867737,43.860546 
	C263.356720,42.852226 264.257568,41.845184 264.260712,40.835358 
	C264.272034,37.189362 264.089203,33.531429 263.719818,29.904465 
	C263.639130,29.111883 262.485657,28.428543 261.826233,27.694895 
	C261.439026,28.476425 260.736237,29.252689 260.723083,30.040462 
	C260.681610,32.524387 260.898804,35.012630 261.045532,38.384705 
z"/>
<path fill="#6BA851" opacity="1.000000" stroke="none" 
	d="
M115.127907,78.653893 
	C113.949509,74.811829 111.716637,72.603500 108.032623,73.383270 
	C104.258247,74.182182 102.814690,77.114960 102.820976,80.880753 
	C102.843224,94.207062 102.815910,107.533463 102.807739,120.859825 
	C102.806625,122.666290 102.807571,124.472763 102.807571,126.639786 
	C89.876678,126.639786 77.306084,126.639786 63.885784,126.639786 
	C63.885784,125.049866 63.885693,123.312889 63.885792,121.575912 
	C63.886513,108.749275 63.922352,95.922447 63.850822,83.096214 
	C63.839882,81.135422 63.933327,78.739868 62.904514,77.327957 
	C61.594696,75.530396 59.235088,73.569756 57.245132,73.478020 
	C55.533508,73.399132 53.223373,75.527855 52.075985,77.271446 
	C51.093929,78.763786 51.161087,81.092995 51.150200,83.054214 
	C51.079918,95.713875 51.115623,108.374115 51.116520,121.034172 
	C51.116646,122.826271 51.116531,124.618370 51.116531,126.703911 
	C37.723351,126.703911 24.796101,126.703911 11.834087,126.703911 
	C11.657646,126.486237 11.270161,126.230965 11.272565,125.979416 
	C11.450686,107.343559 10.612602,88.621750 12.138676,70.094856 
	C13.932622,48.315895 30.260870,34.374752 52.287815,32.972214 
	C63.953701,32.229404 74.443054,34.687702 83.224350,42.831120 
	C96.877655,31.041643 111.963081,30.968822 128.404846,36.199997 
	C117.660393,49.127991 114.664169,63.335751 120.706139,78.469307 
	C126.707062,93.500053 138.689728,101.422195 155.153198,103.478600 
	C155.153198,111.117752 155.153198,118.803734 155.153198,126.716866 
	C141.997391,126.716866 128.934296,126.716866 115.195343,126.716866 
	C115.195343,110.652679 115.195343,94.868156 115.127907,78.653893 
z"/>
<path fill="#6AA850" opacity="1.000000" stroke="none" 
	d="
M237.981964,81.055946 
	C247.949020,64.917244 260.104584,58.821941 276.439453,61.771767 
	C291.287628,64.453117 301.821106,74.044868 303.348114,89.213936 
	C304.686462,102.508919 303.627563,116.045219 303.627563,129.732666 
	C294.277435,129.732666 285.014069,129.732666 275.017548,129.732666 
	C275.017548,124.838272 275.020264,119.917061 275.016846,114.995850 
	C275.012543,108.834267 275.039337,102.672340 274.981812,96.511223 
	C274.949829,93.089546 273.397064,90.361923 269.819519,90.384232 
	C266.216675,90.406677 264.844910,93.156715 264.849213,96.596466 
	C264.860413,105.588654 264.842712,114.580879 264.837036,123.573090 
	C264.835815,125.527397 264.836853,127.481705 264.836853,129.710785 
	C255.037674,129.710785 245.785904,129.710785 236.023605,129.710785 
	C235.811554,125.800331 235.599792,121.894997 235.209839,117.248795 
	C235.330978,114.576515 235.763168,112.654945 235.907196,110.712021 
	C236.639816,100.829712 237.297836,90.941856 237.981964,81.055946 
z"/>
<path fill="#39771F" opacity="1.000000" stroke="none" 
	d="
M237.707397,80.850868 
	C237.297836,90.941856 236.639816,100.829712 235.907196,110.712021 
	C235.763168,112.654945 235.330978,114.576515 234.948242,116.868164 
	C226.031128,128.112244 214.881500,133.660431 200.707733,131.341721 
	C187.287445,129.146286 177.976227,121.392143 173.176620,108.747345 
	C166.617630,91.467278 174.999283,72.020226 191.857880,64.499565 
	C208.951050,56.874260 228.538467,63.813656 237.707397,80.850868 
M212.119278,96.509216 
	C210.723663,94.672737 209.694443,91.966217 207.852142,91.190361 
	C204.549072,89.799339 201.612015,91.452705 200.496216,95.010246 
	C199.446182,98.358055 200.956558,100.836029 204.101456,102.166290 
	C207.683060,103.681282 210.287918,102.027237 212.119278,96.509216 
z"/>
<path fill="#6BA851" opacity="1.000000" stroke="none" 
	d="
M177.888214,35.049999 
	C184.792389,40.210350 189.152740,46.648678 191.471909,54.613064 
	C192.429169,57.900421 191.826691,59.548836 188.617310,61.202194 
	C175.376633,68.023323 167.607819,78.812393 166.896927,93.926941 
	C166.667862,98.797043 163.385696,98.476631 160.440369,98.778511 
	C146.325546,100.225182 132.211304,92.123009 125.786552,79.049232 
	C119.476929,66.209709 121.732567,50.503746 131.387314,40.051281 
	C143.578842,26.852444 162.042023,24.776369 177.888214,35.049999 
M160.409241,68.830574 
	C163.766037,66.544754 164.472885,63.118355 162.060791,60.384506 
	C160.658310,58.794941 156.692413,57.802002 154.928177,58.670322 
	C153.202835,59.519501 151.706650,63.262302 152.073257,65.397888 
	C152.717026,69.148048 155.897064,70.428413 160.409241,68.830574 
z"/>
<path fill="#4B7D32" opacity="1.000000" stroke="none" 
	d="
M283.344666,30.679377 
	C284.079163,31.953928 285.145111,33.276443 284.829193,33.963814 
	C283.670746,36.484264 283.460175,38.834484 283.672668,41.631371 
	C283.764069,42.834545 280.536133,45.117901 278.578857,45.432148 
	C276.302917,45.797569 273.766724,44.542080 270.723419,43.848824 
	C271.913391,38.615128 273.069397,33.530674 274.371979,27.801455 
	C277.466461,28.741724 280.254181,29.588789 283.344666,30.679377 
M280.743805,39.743404 
	C279.044403,39.047699 277.344971,38.351997 275.645569,37.656292 
	C275.292084,37.959091 274.938629,38.261887 274.585144,38.564686 
	C275.071960,39.769794 275.227417,41.545326 276.114807,42.060799 
	C277.940216,43.121155 280.227448,43.712650 280.743805,39.743404 
z"/>
<path fill="#52813B" opacity="1.000000" stroke="none" 
	d="
M309.584473,51.668549 
	C312.593140,49.482384 315.299225,50.200672 316.750549,52.691898 
	C318.033752,54.894539 318.138367,57.783810 318.763306,60.369930 
	C318.147034,60.552620 317.530731,60.735313 316.914429,60.918003 
	C315.810913,58.372879 314.707428,55.827755 313.603912,53.282631 
	C312.937225,53.522205 312.270508,53.761784 311.603790,54.001358 
	C312.009003,55.622410 312.327576,57.271351 312.838409,58.858387 
	C313.754333,61.703777 314.462067,64.488602 310.972931,66.104965 
	C307.363831,67.776886 305.279938,65.472824 303.683350,62.813148 
	C302.176422,60.302830 301.581238,57.610813 305.072388,54.506557 
	C305.330780,56.653267 305.301392,58.110374 305.721741,59.423515 
	C306.144196,60.743248 306.902222,62.008659 307.765839,63.097485 
	C307.987213,63.376587 309.773773,62.968903 309.797455,62.758846 
	C309.937408,61.520092 309.771759,60.246365 309.703857,58.984684 
	C309.577209,56.630554 309.446960,54.276608 309.584473,51.668549 
z"/>
<path fill="#4E7D38" opacity="1.000000" stroke="none" 
	d="
M248.349854,36.866196 
	C248.565964,33.990448 248.802383,31.551937 249.038818,29.113426 
	C249.812714,29.158686 250.586624,29.203947 251.360519,29.249207 
	C251.360519,34.316006 251.425262,39.384502 251.292557,44.447823 
	C251.272034,45.230278 250.429688,46.537025 249.819031,46.630344 
	C248.901154,46.770607 247.516602,46.344635 246.915268,45.651806 
	C243.771683,42.029945 240.812729,38.247826 237.737381,34.457066 
	C240.299606,33.321499 240.299606,33.321499 248.370178,42.714375 
	C248.370178,40.232506 248.370178,38.767967 248.349854,36.866196 
z"/>
<path fill="#4A7B30" opacity="1.000000" stroke="none" 
	d="
M292.207336,51.878456 
	C290.599915,50.688702 289.297241,49.711742 287.817535,48.602047 
	C290.770233,44.143490 293.583954,39.894741 296.702698,35.185429 
	C299.895203,37.346275 302.798553,39.311409 305.955963,41.448532 
	C301.956757,45.000031 298.989410,36.081184 295.855560,42.470703 
	C297.640717,43.829967 299.316895,45.106270 300.993103,46.382576 
	C300.791412,46.913456 300.589722,47.444340 300.388000,47.975224 
	C298.397156,47.206005 296.406281,46.436790 293.886108,45.463055 
	C289.529175,49.807858 297.753174,50.399765 296.625305,54.357693 
	C295.135681,53.536888 293.823883,52.814072 292.207336,51.878456 
z"/>
<path fill="#4B7C37" opacity="1.000000" stroke="none" 
	d="
M261.030701,37.941952 
	C260.898804,35.012630 260.681610,32.524387 260.723083,30.040462 
	C260.736237,29.252689 261.439026,28.476425 261.826233,27.694893 
	C262.485657,28.428543 263.639130,29.111883 263.719818,29.904465 
	C264.089203,33.531429 264.272034,37.189362 264.260712,40.835358 
	C264.257568,41.845184 263.356720,42.852226 262.867737,43.860546 
	C262.297729,42.864231 261.594635,41.916965 261.203217,40.854832 
	C260.929810,40.112843 261.082916,39.213669 261.030701,37.941952 
z"/>
<path fill="#F7F9F6" opacity="1.000000" stroke="none" 
	d="
M212.095184,96.907501 
	C210.287918,102.027237 207.683060,103.681282 204.101456,102.166290 
	C200.956558,100.836029 199.446182,98.358055 200.496216,95.010246 
	C201.612015,91.452705 204.549072,89.799339 207.852142,91.190361 
	C209.694443,91.966217 210.723663,94.672737 212.095184,96.907501 
z"/>
<path fill="#F9FBF8" opacity="1.000000" stroke="none" 
	d="
M160.058350,68.982941 
	C155.897064,70.428413 152.717026,69.148048 152.073257,65.397888 
	C151.706650,63.262302 153.202835,59.519501 154.928177,58.670322 
	C156.692413,57.802002 160.658310,58.794941 162.060791,60.384506 
	C164.472885,63.118355 163.766037,66.544754 160.058350,68.982941 
z"/>
<path fill="#ECF0EA" opacity="1.000000" stroke="none" 
	d="
M280.846863,40.119339 
	C280.227448,43.712650 277.940216,43.121155 276.114807,42.060799 
	C275.227417,41.545326 275.071960,39.769794 274.585144,38.564686 
	C274.938629,38.261887 275.292084,37.959091 275.645569,37.656292 
	C277.344971,38.351997 279.044403,39.047699 280.846863,40.119339 
z"/>
</svg>