<?xml version="1.0" encoding="UTF-8"?>
<svg version="1.1" xmlns="http://www.w3.org/2000/svg" width="500" height="500">
<path d="M0 0 C0.886875 -0.7425 1.77375 -1.485 2.6875 -2.25 C12.10441291 -8.91398474 23.54892529 -10.21598197 34.71484375 -8.609375 C37.1875 -8.125 37.1875 -8.125 41 -7 C41.495 -6.01 41.495 -6.01 42 -5 C41.29423828 -4.05640625 41.29423828 -4.05640625 40.57421875 -3.09375 C39.64029297 -1.80984375 39.64029297 -1.80984375 38.6875 -0.5 C38.07261719 0.3353125 37.45773438 1.170625 36.82421875 2.03125 C32.78154331 8.61033637 31.43902518 14.56717215 31.5 22.25 C31.50499512 23.08047852 31.50999023 23.91095703 31.51513672 24.76660156 C31.78077103 34.20119968 34.68341248 42.54858748 41.2734375 49.4765625 C50.77571154 57.86092195 59.39442217 59.89907036 72 62 C72 70.25 72 78.5 72 87 C66.32164603 87.02290685 60.64345119 87.04283457 54.96508789 87.05493164 C53.03181415 87.05997256 51.09854424 87.06680519 49.1652832 87.07543945 C46.39273128 87.08751565 43.62022959 87.09323057 40.84765625 87.09765625 C39.54297142 87.10539818 39.54297142 87.10539818 38.21192932 87.11329651 C36.14094186 87.11349185 34.07005676 87.06208168 32 87 C30.39238996 85.39238996 30.85910215 83.66049318 30.84228516 81.43603516 C30.83202301 80.46477692 30.82176086 79.49351868 30.81118774 78.49282837 C30.80388641 77.43558563 30.79658508 76.3783429 30.7890625 75.2890625 C30.76099579 73.07290926 30.73233134 70.85676352 30.703125 68.640625 C30.66181451 65.12923373 30.62494742 61.61798283 30.59863281 58.10644531 C30.57110095 54.72951938 30.52522814 51.35324097 30.4765625 47.9765625 C30.47330963 46.92336823 30.47005676 45.87017395 30.46670532 44.7850647 C30.45013885 43.80750214 30.43357239 42.82993958 30.41650391 41.82275391 C30.40841705 40.96195221 30.4003302 40.10115051 30.39199829 39.21426392 C29.91558117 36.52314697 29.18855096 35.60000008 27 34 C24.40110217 33.91975342 24.40110217 33.91975342 22 35 C20.08492746 37.96764764 19.73627469 40.36926939 19.68115234 43.86035156 C19.66128265 44.82104553 19.64141296 45.7817395 19.62094116 46.77154541 C19.60938995 47.80084167 19.59783875 48.83013794 19.5859375 49.890625 C19.56657135 50.95037537 19.5472052 52.01012573 19.5272522 53.10198975 C19.46750446 56.48457813 19.4210898 59.86720063 19.375 63.25 C19.33681584 65.54428562 19.29776385 67.83855697 19.2578125 70.1328125 C19.1601745 75.75513382 19.08056653 81.37730435 19 87 C6.13 87 -6.74 87 -20 87 C-21.43554678 84.12890645 -21.07883453 81.69506173 -21.0390625 78.48828125 C-21.02867998 77.12191873 -21.01996008 75.75554281 -21.01269531 74.38916016 C-21.00886841 73.67085022 -21.0050415 72.95254028 -21.00109863 72.21246338 C-20.99815822 66.29095874 -21.16007467 60.37094545 -21.31738281 54.4519043 C-21.35638394 52.91912713 -21.39109065 51.38623569 -21.421875 49.85327148 C-21.46724993 47.60366763 -21.52512306 45.35470158 -21.5859375 43.10546875 C-21.6173584 41.78699951 -21.6487793 40.46853027 -21.68115234 39.11010742 C-21.67962551 35.89950424 -21.67962551 35.89950424 -24 34 C-27.09926819 34.32198966 -27.09926819 34.32198966 -30 35 C-30.8522653 37.9774696 -31.14712372 40.67571776 -31.20532227 43.76855469 C-31.22526749 44.70922791 -31.24521271 45.64990112 -31.26576233 46.61907959 C-31.29083107 48.13021332 -31.29083107 48.13021332 -31.31640625 49.671875 C-31.33718735 50.70942932 -31.35796844 51.74698364 -31.37937927 52.815979 C-31.44471408 56.12725258 -31.50368517 59.43860482 -31.5625 62.75 C-31.60570049 64.99610185 -31.64931527 67.24219578 -31.69335938 69.48828125 C-31.80037903 74.99210457 -31.90217522 80.49600598 -32 86 C-35.80767591 87.2692253 -39.38500744 87.14296696 -43.3515625 87.1328125 C-44.16619965 87.13376923 -44.98083679 87.13472595 -45.82015991 87.13571167 C-47.53993812 87.13639166 -49.25971892 87.13454998 -50.97949219 87.13037109 C-53.62180283 87.12500649 -56.26394455 87.13032925 -58.90625 87.13671875 C-60.57552121 87.13605821 -62.24479232 87.13477754 -63.9140625 87.1328125 C-65.10619858 87.13584885 -65.10619858 87.13584885 -66.32241821 87.13894653 C-71.88503986 87.11496014 -71.88503986 87.11496014 -73 86 C-73.10936467 84.28413677 -73.14908231 82.5637852 -73.16113281 80.84448242 C-73.17074036 79.74210739 -73.1803479 78.63973236 -73.19024658 77.50395203 C-73.19449646 76.29995255 -73.19874634 75.09595306 -73.203125 73.85546875 C-73.20882507 72.62016922 -73.21452515 71.38486969 -73.22039795 70.11213684 C-73.22987216 67.48495809 -73.23675481 64.85789415 -73.24023438 62.23071289 C-73.24673164 58.24283584 -73.2808374 54.25533394 -73.3125 50.26757812 C-73.31903721 47.71354472 -73.32428485 45.15950763 -73.328125 42.60546875 C-73.3404718 41.42373581 -73.3528186 40.24200287 -73.36553955 39.02445984 C-73.33538099 27.59805782 -71.30812535 17.63133334 -65 8 C-64.4225 7.113125 -63.845 6.22625 -63.25 5.3125 C-46.40069121 -12.00484514 -19.41526366 -13.704892 0 0 Z " fill="#68C669" transform="translate(177,219)"/>
<path d="M0 0 C4.6816476 3.26402721 7.56741209 6.92338376 10.71484375 11.64453125 C11.37484375 11.97453125 12.03484375 12.30453125 12.71484375 12.64453125 C12.97523438 11.90203125 13.235625 11.15953125 13.50390625 10.39453125 C16.35467793 3.92052072 21.89453609 -0.32555363 28.15234375 -3.35546875 C38.12750737 -7.08037162 50.38978036 -7.05105631 60.21484375 -2.8125 C68.55297946 2.04706972 74.64528676 8.35005709 77.29072571 17.67431641 C78.59252828 23.19290194 78.9959151 28.36111755 78.9453125 34.01953125 C78.94485428 34.8700708 78.94439606 35.72061035 78.94392395 36.59692383 C78.9409276 38.37501439 78.93312104 40.15310296 78.9206543 41.93115234 C78.90220473 44.66513226 78.9001463 47.39877634 78.90039062 50.1328125 C78.89548166 51.86588837 78.88965607 53.59896194 78.8828125 55.33203125 C78.88169968 56.15171387 78.88058685 56.97139648 78.87944031 57.81591797 C78.83095599 63.52841901 78.83095599 63.52841901 77.71484375 64.64453125 C75.58131201 64.74456414 73.44446833 64.77534173 71.30859375 64.77734375 C70.00792969 64.77863281 68.70726562 64.77992188 67.3671875 64.78125 C66.68640137 64.77915527 66.00561523 64.77706055 65.30419922 64.77490234 C63.2235586 64.76955365 61.14313386 64.77484805 59.0625 64.78125 C57.11150391 64.77931641 57.11150391 64.77931641 55.12109375 64.77734375 C53.91775391 64.77621582 52.71441406 64.77508789 51.47460938 64.77392578 C48.71484375 64.64453125 48.71484375 64.64453125 47.71484375 63.64453125 C47.55473894 60.90751947 47.45537547 58.19285535 47.3984375 55.453125 C47.36726585 54.22336693 47.36726585 54.22336693 47.33546448 52.96876526 C47.26987881 50.33994224 47.21104249 47.71101621 47.15234375 45.08203125 C47.10916708 43.30402564 47.06555308 41.5260306 47.02148438 39.74804688 C46.91418832 35.38031491 46.81294671 31.01247898 46.71484375 26.64453125 C45.06484375 26.31453125 43.41484375 25.98453125 41.71484375 25.64453125 C39.21042263 29.40116293 39.36598938 32.4546125 39.30078125 36.8125 C39.2814151 37.60731277 39.26204895 38.40212555 39.24209595 39.22102356 C39.18234933 41.7579172 39.13593492 44.29485634 39.08984375 46.83203125 C39.0516594 48.55275409 39.0126074 50.2734579 38.97265625 51.99414062 C38.87665196 56.2107829 38.79260299 60.42751465 38.71484375 64.64453125 C34.60311815 64.66918871 30.49142097 64.68737084 26.37963867 64.69946289 C24.97989147 64.70450205 23.58014955 64.71133341 22.18041992 64.7199707 C20.17238598 64.73205445 18.16431418 64.73722932 16.15625 64.7421875 C14.94654541 64.74742432 13.73684082 64.75266113 12.49047852 64.75805664 C9.71484375 64.64453125 9.71484375 64.64453125 8.71484375 63.64453125 C8.48197367 61.96269177 8.30220209 60.27328965 8.15234375 58.58203125 C8.02666016 57.20337891 8.02666016 57.20337891 7.8984375 55.796875 C7.83785156 55.08660156 7.77726562 54.37632812 7.71484375 53.64453125 C7.18117188 54.175625 6.6475 54.70671875 6.09765625 55.25390625 C-1.94749646 62.88149048 -10.79162779 67.06678319 -22.0546875 66.85546875 C-31.63347189 65.94959422 -41.17494161 61.40652626 -47.66015625 54.26953125 C-53.97268588 46.10247314 -56.8272786 36.94683451 -56.16015625 26.58203125 C-54.47138582 14.70434587 -48.47008588 6.7767069 -39.34765625 -0.79296875 C-26.46341221 -7.36656265 -12.54464263 -7.44101025 0 0 Z M-25.28515625 27.64453125 C-25.79334986 30.54849475 -25.67978941 31.98680932 -24.16015625 34.51953125 C-22.21191206 35.90713846 -22.21191206 35.90713846 -19.22265625 35.64453125 C-16.07086054 34.94404924 -16.07086054 34.94404924 -14.91015625 32.08203125 C-14.70390625 31.27765625 -14.49765625 30.47328125 -14.28515625 29.64453125 C-15.9085543 27.9356912 -17.57834678 26.27006408 -19.28515625 24.64453125 C-22.16747375 24.64453125 -23.24091087 25.66842739 -25.28515625 27.64453125 Z " fill="#69C46B" transform="translate(315.28515625,244.35546875)"/>
<path d="M0 0 C4.6778329 3.26136761 7.60922905 6.89476759 10.71484375 11.64453125 C11.70484375 12.63453125 11.70484375 12.63453125 12.71484375 13.64453125 C12.23265381 14.88130615 12.23265381 14.88130615 11.74072266 16.14306641 C10.6003656 20.03526083 10.36591875 23.64880902 10.30078125 27.66796875 C10.2814151 28.41414459 10.26204895 29.16032043 10.24209595 29.92910767 C10.1827231 32.29246902 10.13608595 34.65588022 10.08984375 37.01953125 C10.05162491 38.63022857 10.01257095 40.24090631 9.97265625 41.8515625 C9.87705699 45.78239141 9.79287175 49.71331588 9.71484375 53.64453125 C9.09407959 53.94182129 8.47331543 54.23911133 7.83374023 54.54541016 C5.47193734 55.77053248 3.7734338 57.26481102 1.77734375 59.01953125 C-5.53385218 64.79851285 -15.0034124 67.7096494 -24.28515625 66.64453125 C-34.73808158 64.54701224 -44.22654693 59.59907962 -50.28515625 50.64453125 C-55.87229611 41.94931358 -57.42235944 31.70852539 -55.28515625 21.64453125 C-52.79359553 12.05352341 -46.86126325 5.44172642 -39.34765625 -0.79296875 C-26.46341221 -7.36656265 -12.54464263 -7.44101025 0 0 Z M-25.28515625 27.64453125 C-25.79334986 30.54849475 -25.67978941 31.98680932 -24.16015625 34.51953125 C-22.21191206 35.90713846 -22.21191206 35.90713846 -19.22265625 35.64453125 C-16.07086054 34.94404924 -16.07086054 34.94404924 -14.91015625 32.08203125 C-14.70390625 31.27765625 -14.49765625 30.47328125 -14.28515625 29.64453125 C-15.9085543 27.9356912 -17.57834678 26.27006408 -19.28515625 24.64453125 C-22.16747375 24.64453125 -23.24091087 25.66842739 -25.28515625 27.64453125 Z " fill="#246B22" transform="translate(315.28515625,244.35546875)"/>
<path d="M0 0 C10.06177186 5.13453334 15.72746472 12.56238962 19.80078125 22.9609375 C20.46484375 25.2578125 20.46484375 25.2578125 20.46484375 29.2578125 C18.453125 30.8203125 18.453125 30.8203125 15.77734375 32.2578125 C14.86082031 32.77730469 13.94429688 33.29679687 13 33.83203125 C12.16339844 34.30253906 11.32679688 34.77304688 10.46484375 35.2578125 C2.17089853 40.7242764 -1.94005389 49.95641931 -4.53515625 59.2578125 C-5.00584468 61.93217855 -5.28450639 64.55079406 -5.53515625 67.2578125 C-7.98920359 69.71185984 -13.26256199 69.17157215 -16.53515625 69.2578125 C-26.24411576 68.46493907 -35.71259787 64.23542902 -42.53515625 57.2578125 C-49.9250001 46.67044007 -51.689241 36.94036848 -50.53515625 24.2578125 C-48.92339227 16.00428286 -43.82928134 9.65145067 -37.53515625 4.2578125 C-25.5902074 -3.04846514 -13.30366547 -5.58714879 0 0 Z M-19.53515625 29.3828125 C-20.76251948 31.28243582 -20.76251948 31.28243582 -20.34765625 33.8203125 C-19.68888592 36.40222522 -19.68888592 36.40222522 -17.53515625 38.2578125 C-14.50170671 38.1689625 -14.50170671 38.1689625 -11.53515625 37.2578125 C-9.20124422 34.47667194 -9.20124422 34.47667194 -9.91015625 31.5703125 C-10.11640625 30.8071875 -10.32265625 30.0440625 -10.53515625 29.2578125 C-15.17017462 28.09771851 -15.17017462 28.09771851 -19.53515625 29.3828125 Z " fill="#69C56B" transform="translate(261.53515625,208.7421875)"/>
<path d="M0 0 C1.46015291 0.28241641 2.91809793 0.57626614 4.375 0.875 C5.18710937 1.03742188 5.99921875 1.19984375 6.8359375 1.3671875 C9 2 9 2 11 4 C11.30078125 6.4609375 11.30078125 6.4609375 11.3125 9.375 C11.32925781 10.33148438 11.34601563 11.28796875 11.36328125 12.2734375 C10.94443014 15.41707269 10.2447799 16.78114135 8 19 C3.35336391 19.5162929 0.23056528 18.81725313 -4 17 C-3.52434234 14.54093963 -3.04463948 12.08279007 -2.5625 9.625 C-2.42779297 8.92632812 -2.29308594 8.22765625 -2.15429688 7.5078125 C-1.11328125 2.2265625 -1.11328125 2.2265625 0 0 Z M3 6 C3.33 6.66 3.66 7.32 4 8 C4.99 8 5.98 8 7 8 C7 7.34 7 6.68 7 6 C5.68 6 4.36 6 3 6 Z M1 12 C1 12.99 1 13.98 1 15 C2.65 15 4.3 15 6 15 C6.33 14.34 6.66 13.68 7 13 C4.03 12.505 4.03 12.505 1 12 Z " fill="#286124" transform="translate(363,205)"/>
<path d="M0 0 C3.5 0.1875 3.5 0.1875 7 1 C9.30441554 4.45662331 9.25860135 5.94857881 9 10 C8.67 10.66 8.34 11.32 8 12 C7.01 11.67 6.02 11.34 5 11 C4.87625 10.030625 4.7525 9.06125 4.625 8.0625 C4.41875 7.051875 4.2125 6.04125 4 5 C3.34 4.67 2.68 4.34 2 4 C2.33 4.70125 2.66 5.4025 3 6.125 C4.10704461 9.30775326 4.29748557 11.65328734 4 15 C2 17 2 17 -0.875 17.4375 C-4 17 -4 17 -6.375 14.875 C-8.25015884 11.55741129 -8.58338459 9.75032949 -8 6 C-7.01 5.34 -6.02 4.68 -5 4 C-3.14223235 7.13498292 -2.79859524 9.37471432 -3 13 C-2.01 13 -1.02 13 0 13 C-0.495 11.948125 -0.495 11.948125 -1 10.875 C-2.10704461 7.69224674 -2.29748557 5.34671266 -2 2 C-1.34 1.34 -0.68 0.68 0 0 Z " fill="#32642E" transform="translate(399,228)"/>
<path d="M0 0 C3.59391114 1.33488128 6.75490696 2.96022723 10 5 C9.67 6.32 9.34 7.64 9 9 C4.25 7.125 4.25 7.125 2 6 C1.7715451 8.24362573 1.7715451 8.24362573 4 10.125 C4.66 10.74375 5.32 11.3625 6 12 C5.67 12.66 5.34 13.32 5 14 C2.61435923 13.42415568 0.33317216 12.77772405 -2 12 C-2.33 12.66 -2.66 13.32 -3 14 C-1.7934375 14.433125 -1.7934375 14.433125 -0.5625 14.875 C2 16 2 16 3 18 C2.67 18.66 2.34 19.32 2 20 C-1.15330554 19.39305845 -3.18888867 18.3583335 -5.75 16.4375 C-6.36359375 15.98246094 -6.9771875 15.52742187 -7.609375 15.05859375 C-8.06828125 14.70925781 -8.5271875 14.35992187 -9 14 C-7.87883864 12.03946649 -6.75294469 10.08163875 -5.625 8.125 C-4.99851562 7.03445312 -4.37203125 5.94390625 -3.7265625 4.8203125 C-2 2 -2 2 0 0 Z " fill="#2F642A" transform="translate(385,213)"/>
<path d="M0 0 C0 6.27 0 12.54 0 19 C-1.32 19.33 -2.64 19.66 -4 20 C-5.46691458 18.44555348 -6.92320641 16.88107825 -8.375 15.3125 C-9.18710937 14.44238281 -9.99921875 13.57226562 -10.8359375 12.67578125 C-12.88977509 10.13628893 -13.9900668 8.07974134 -15 5 C-13.68 4.67 -12.36 4.34 -11 4 C-9.02 6.64 -7.04 9.28 -5 12 C-4.95101563 11.21753906 -4.90203125 10.43507812 -4.8515625 9.62890625 C-4.77679688 8.61699219 -4.70203125 7.60507813 -4.625 6.5625 C-4.55539062 5.55316406 -4.48578125 4.54382813 -4.4140625 3.50390625 C-4.27742188 2.67761719 -4.14078125 1.85132813 -4 1 C-2 0 -2 0 0 0 Z " fill="#30642D" transform="translate(341,206)"/>
<path d="M0 0 C0.99 0.495 0.99 0.495 2 1 C2 12.22 2 23.44 2 35 C9.59 35 17.18 35 25 35 C21.2834991 36.85825045 20.15556112 37.25016734 16.26953125 37.23046875 C14.94211914 37.22756836 14.94211914 37.22756836 13.58789062 37.22460938 C12.67201172 37.21236328 11.75613281 37.20011719 10.8125 37.1875 C9.88501953 37.18685547 8.95753906 37.18621094 8.00195312 37.18554688 C1.14037187 37.14037187 1.14037187 37.14037187 0 36 C-0.08855161 33.3337397 -0.11524673 30.69352886 -0.09765625 28.02734375 C-0.0962413 27.22970108 -0.09482635 26.43205841 -0.09336853 25.61024475 C-0.08775316 23.05262565 -0.07519812 20.49509282 -0.0625 17.9375 C-0.05748698 16.20768355 -0.05292373 14.47786574 -0.04882812 12.74804688 C-0.03777875 8.49866447 -0.02050386 4.24934688 0 0 Z " fill="#71A370" transform="translate(363,272)"/>
<path d="M0 0 C0.33 0 0.66 0 1 0 C1.12117187 0.64066406 1.24234375 1.28132812 1.3671875 1.94140625 C2.35679227 7.04928933 3.48510951 12.02250269 5 17 C4.01 17 3.02 17 2 17 C2 31.52 2 46.04 2 61 C1.67 61 1.34 61 1 61 C0.99191315 60.39722733 0.98382629 59.79445465 0.97549438 59.17341614 C0.88938447 52.89526401 0.78987785 46.61742527 0.68261719 40.33959961 C0.64435284 37.99720527 0.60949554 35.65475267 0.578125 33.31225586 C0.53241975 29.943636 0.47443339 26.57541627 0.4140625 23.20703125 C0.39673569 21.63801811 0.39673569 21.63801811 0.37905884 20.03730774 C0.35918915 19.05666855 0.33931946 18.07602936 0.31884766 17.06567383 C0.30552399 16.20629715 0.29220032 15.34692047 0.2784729 14.46150208 C-0.03381066 11.70113783 -0.8666162 9.52494195 -2 7 C-1.34 7 -0.68 7 0 7 C0 4.69 0 2.38 0 0 Z " fill="#70B270" transform="translate(207,244)"/>
<path d="M0 0 C0.33 0 0.66 0 1 0 C1 9.57 1 19.14 1 29 C-0.98 29.99 -0.98 29.99 -3 31 C-5.27634819 32.72660399 -7.47539528 34.53110708 -9.68359375 36.34375 C-12.82721371 38.59146478 -15.38234797 40.26232195 -19.3125 39.625 C-19.869375 39.41875 -20.42625 39.2125 -21 39 C-20.49210937 38.75765625 -19.98421875 38.5153125 -19.4609375 38.265625 C-12.74323576 34.99483389 -7.1793237 31.47528505 -2 26 C-1.67 25.67 -1.34 25.34 -1 25 C-0.84213692 23.14825294 -0.74892644 21.2909089 -0.68359375 19.43359375 C-0.64169922 18.30888672 -0.59980469 17.18417969 -0.55664062 16.02539062 C-0.51732422 14.84138672 -0.47800781 13.65738281 -0.4375 12.4375 C-0.39431641 11.24962891 -0.35113281 10.06175781 -0.30664062 8.83789062 C-0.20016454 5.89205216 -0.09815159 2.9461257 0 0 Z " fill="#3A7C39" transform="translate(324,269)"/>
<path d="M0 0 C7.75 0.75 7.75 0.75 10 3 C10.30078125 5.4609375 10.30078125 5.4609375 10.3125 8.375 C10.32925781 9.33148438 10.34601563 10.28796875 10.36328125 11.2734375 C9.95204261 14.35993828 9.05500649 15.71183974 7 18 C4.61435923 17.42415568 2.33317216 16.77772405 0 16 C0 15.34 0 14.68 0 14 C3.465 13.505 3.465 13.505 7 13 C7.33 11.68 7.66 10.36 8 9 C7.01 8.67 6.02 8.34 5 8 C5.33 7.01 5.66 6.02 6 5 C5.34 5 4.68 5 4 5 C3.67 4.01 3.34 3.02 3 2 C2.01 1.34 1.02 0.68 0 0 Z " fill="#31652C" transform="translate(364,206)"/>
<path d="M0 0 C0.66 0 1.32 0 2 0 C1.979375 0.94875 1.95875 1.8975 1.9375 2.875 C1.77448174 5.90666283 1.77448174 5.90666283 3 8 C2.814375 8.598125 2.62875 9.19625 2.4375 9.8125 C1.85247449 12.73762753 2.84976216 14.29355802 4 17 C4 18.32 4 19.64 4 21 C4.99 21.66 5.98 22.32 7 23 C7.33 23.99 7.66 24.98 8 26 C8.66 26.33 9.32 26.66 10 27 C9.34 28.32 8.68 29.64 8 31 C0.26833735 22.71607574 -0.47655838 13.91251817 -0.140625 3.1484375 C-0.09421875 2.10945312 -0.0478125 1.07046875 0 0 Z " fill="#76BB77" transform="translate(211,234)"/>
<path d="M0 0 C1.32 0 2.64 0 4 0 C4.8320582 5.72040011 5.12036664 11.22240116 5 17 C3.68 17 2.36 17 1 17 C0.1679418 11.27959989 -0.12036664 5.77759884 0 0 Z " fill="#31652F" transform="translate(349,205)"/>
<path d="M0 0 C2.875 0.25 2.875 0.25 6 1 C7.375 3.0625 7.375 3.0625 8 5 C7.01 4.34 6.02 3.68 5 3 C2.38084878 3.15701426 2.38084878 3.15701426 0 4 C-1.4764236 6.9528472 -1.22272939 9.68448983 -1.31640625 12.9765625 C-1.33718735 13.66181 -1.35796844 14.3470575 -1.37937927 15.05307007 C-1.44480185 17.24361069 -1.50372554 19.43427189 -1.5625 21.625 C-1.60569218 23.1093875 -1.6493067 24.59376278 -1.69335938 26.078125 C-1.80047553 29.71862084 -1.90176362 33.35925251 -2 37 C-2.33 37 -2.66 37 -3 37 C-3.0743839 32.53429551 -3.12871171 28.06892316 -3.16479492 23.6027832 C-3.17984353 22.08481562 -3.20028738 20.56689124 -3.22631836 19.04907227 C-3.26287653 16.86203323 -3.27976523 14.67557104 -3.29296875 12.48828125 C-3.3086792 11.17384033 -3.32438965 9.85939941 -3.34057617 8.50512695 C-2.98318095 4.82690239 -2.15411544 2.95414447 0 0 Z " fill="#75BC77" transform="translate(356,267)"/>
<path d="M0 0 C6.95786775 1.61102069 12.45655456 4.56524365 18 9 C16 10 16 10 13.4375 9.1875 C11 8 11 8 10 6 C8.25436854 5.12830231 8.25436854 5.12830231 6.1875 4.4375 C5.50042969 4.18871094 4.81335938 3.93992188 4.10546875 3.68359375 C3.06326172 3.34521484 3.06326172 3.34521484 2 3 C1.41347656 2.80664062 0.82695312 2.61328125 0.22265625 2.4140625 C-3.09137406 1.79668603 -6.39305339 1.89625207 -9.75 1.9375 C-10.44738281 1.94201172 -11.14476562 1.94652344 -11.86328125 1.95117188 C-13.57555803 1.9628998 -15.28779033 1.98083347 -17 2 C-11.88050106 -1.41299929 -5.97316093 -0.50875503 0 0 Z " fill="#7BB87C" transform="translate(253,206)"/>
<path d="M0 0 C2.30441554 3.45662331 2.25860135 4.94857881 2 9 C1.67 9.66 1.34 10.32 1 11 C0.01 10.67 -0.98 10.34 -2 10 C-2.33 8.02 -2.66 6.04 -3 4 C-4.32 3.67 -5.64 3.34 -7 3 C-7 2.34 -7 1.68 -7 1 C-4.46578263 -0.26710868 -2.80561762 -0.28056176 0 0 Z " fill="#296424" transform="translate(406,229)"/>
<path d="M0 0 C4.68352299 1.2872841 7.64957614 3.00299198 11.25 6.25 C12.10078125 6.99765625 12.9515625 7.7453125 13.828125 8.515625 C16.22557694 11.25803405 17.0902217 13.50240789 18 17 C16.35 16.34 14.7 15.68 13 15 C13.33 14.34 13.66 13.68 14 13 C10.72737809 8.22742639 6.87825784 5.85483261 2 3 C1.01 2.34 0.02 1.68 -1 1 C-0.67 0.67 -0.34 0.34 0 0 Z " fill="#75B876" transform="translate(372,241)"/>
<path d="M0 0 C0.66 0.33 1.32 0.66 2 1 C0.030258 3.11043785 -1.57398993 4.79308082 -4.1875 6.0625 C-6.36058256 6.9194894 -6.36058256 6.9194894 -7 10 C-10.0625 11.6875 -10.0625 11.6875 -13 13 C-10.50869967 6.88499009 -5.394715 3.38737919 0 0 Z " fill="#77B778" transform="translate(125,216)"/>
<path d="M0 0 C0 0.66 0 1.32 0 2 C-1.04800781 2.50660156 -1.04800781 2.50660156 -2.1171875 3.0234375 C-3.02726563 3.46945313 -3.93734375 3.91546875 -4.875 4.375 C-5.77992188 4.81585938 -6.68484375 5.25671875 -7.6171875 5.7109375 C-10.09534472 6.90502699 -10.09534472 6.90502699 -12 9 C-12.99 8.34 -13.98 7.68 -15 7 C-5.60526316 0 -5.60526316 0 0 0 Z " fill="#78BA78" transform="translate(192,212)"/>
<path d="M0 0 C-0.66 1.98 -1.32 3.96 -2 6 C-2.66 6 -3.32 6 -4 6 C-4 5.34 -4 4.68 -4 4 C-6.64 4.33 -9.28 4.66 -12 5 C-8.36219404 0.99841344 -5.42711258 -0.30150625 0 0 Z " fill="#73BF73" transform="translate(238,208)"/>
<path d="M0 0 C0 0.99 0 1.98 0 3 C-3.96 4.98 -3.96 4.98 -8 7 C-8.33 6.34 -8.66 5.68 -9 5 C-4.5 0 -4.5 0 0 0 Z " fill="#6FB670" transform="translate(282,235)"/>
<path d="M0 0 C6.44807122 0.60830861 6.44807122 0.60830861 8.9375 2.375 C10 4 10 4 10 7 C5.56541027 5.6062718 3.12621626 3.39417765 0 0 Z " fill="#72B472" transform="translate(220,266)"/>
<path d="M0 0 C1.11375 0.3403125 1.11375 0.3403125 2.25 0.6875 C-2.375 5.5625 -2.375 5.5625 -5.75 6.6875 C-6.08 5.3675 -6.41 4.0475 -6.75 2.6875 C-4.29511132 0.41445492 -3.41240272 -0.38777304 0 0 Z " fill="#6DB86E" transform="translate(270.75,241.3125)"/>
<path d="M0 0 C2.31 0.66 4.62 1.32 7 2 C5.7934375 2.8971875 5.7934375 2.8971875 4.5625 3.8125 C1.77672016 5.80947276 1.77672016 5.80947276 1 9 C0.34 9 -0.32 9 -1 9 C-1.33 7.68 -1.66 6.36 -2 5 C-1.01 5 -0.02 5 1 5 C1 4.01 1 3.02 1 2 C0.34 1.67 -0.32 1.34 -1 1 C-0.67 0.67 -0.34 0.34 0 0 Z " fill="#70BA6F" transform="translate(196,249)"/>
<path d="M0 0 C2.125 0.375 2.125 0.375 4 1 C1.25 5.875 1.25 5.875 -1 7 C-1 6.34 -1 5.68 -1 5 C-1.66 5 -2.32 5 -3 5 C-2 2 -2 2 0 0 Z " fill="#71BB70" transform="translate(215,212)"/>
<path d="M0 0 C4.55737263 0.43820891 7.57653445 0.85041169 11 4 C7.97121688 4.97353743 5.97153543 5.24612776 3 4 C1.25 1.9375 1.25 1.9375 0 0 Z " fill="#2D602B" transform="translate(302,240)"/>
<path d="M0 0 C0.78375 0.04125 1.5675 0.0825 2.375 0.125 C-0.625 2.125 -0.625 2.125 -2.625 2.125 C-2.625 2.785 -2.625 3.445 -2.625 4.125 C-1.965 4.125 -1.305 4.125 -0.625 4.125 C-0.955 5.115 -1.285 6.105 -1.625 7.125 C-2.615 7.125 -3.605 7.125 -4.625 7.125 C-4.75 4.75 -4.75 4.75 -4.625 2.125 C-2.625 0.125 -2.625 0.125 0 0 Z " fill="#376833" transform="translate(401.625,227.875)"/>
<path d="M0 0 C3.65316671 1.24976756 4.78065836 1.67098753 7 5 C6.67 5.66 6.34 6.32 6 7 C4.125 6.875 4.125 6.875 2 6 C0.75 2.9375 0.75 2.9375 0 0 Z " fill="#356C35" transform="translate(384,220)"/>
<path d="M0 0 C3.79379058 1.49041773 5.68343758 3.69062512 8 7 C8 7.66 8 8.32 8 9 C6.1875 8.875 6.1875 8.875 4 8 C2.3125 5.0625 2.3125 5.0625 1 2 C0.67 1.34 0.34 0.68 0 0 Z " fill="#2F602C" transform="translate(317,247)"/>
<path d="M0 0 C0.33 0 0.66 0 1 0 C1 1.65 1 3.3 1 5 C1.99 4.67 2.98 4.34 4 4 C4.99 4.66 5.98 5.32 7 6 C4.1875 6.625 4.1875 6.625 1 7 C0.01 6.34 -0.98 5.68 -2 5 C-2 4.01 -2 3.02 -2 2 C-1.34 2 -0.68 2 0 2 C0 1.34 0 0.68 0 0 Z " fill="#276C29" transform="translate(363,217)"/>
<path d="M0 0 C2.475 0.99 2.475 0.99 5 2 C5 2.99 5 3.98 5 5 C4.01 5.33 3.02 5.66 2 6 C1.34 5.34 0.68 4.68 0 4 C0 2.68 0 1.36 0 0 Z " fill="#70BA74" transform="translate(170,216)"/>
<path d="M0 0 C0 0.66 0 1.32 0 2 C-6.96428571 5.34821429 -6.96428571 5.34821429 -11 4 C-9.73308493 3.32591692 -8.46129251 2.66099503 -7.1875 2 C-6.47980469 1.62875 -5.77210938 1.2575 -5.04296875 0.875 C-3 0 -3 0 0 0 Z " fill="#2F5929" transform="translate(314,304)"/>
<path d="M0 0 C0.99 0.33 1.98 0.66 3 1 C2.34 2.98 1.68 4.96 1 7 C0.34 6.67 -0.32 6.34 -1 6 C-1 5.34 -1 4.68 -1 4 C-1.66 3.67 -2.32 3.34 -3 3 C-2.01 2.01 -1.02 1.02 0 0 Z " fill="#70BA70" transform="translate(260,250)"/>
<path d="M0 0 C2.31 0.66 4.62 1.32 7 2 C6.67 2.99 6.34 3.98 6 5 C2.73045798 4.43628586 1.17424117 3.50037734 -1 1 C-0.67 0.67 -0.34 0.34 0 0 Z " fill="#366838" transform="translate(381,228)"/>
<path d="M0 0 C2.83374881 3.20336822 3.5205537 5.78087253 4 10 C3.34 10 2.68 10 2 10 C-1.125 3.375 -1.125 3.375 0 0 Z " fill="#74B976" transform="translate(277,224)"/>
<path d="M0 0 C0.99 0.99 1.98 1.98 3 3 C0.36 3.33 -2.28 3.66 -5 4 C-5.33 3.34 -5.66 2.68 -6 2 C-4.02 1.34 -2.04 0.68 0 0 Z " fill="#2A6529" transform="translate(299,307)"/>
<path d="M0 0 C2.475 0.99 2.475 0.99 5 2 C5 2.99 5 3.98 5 5 C3.68 5 2.36 5 1 5 C0.67 3.35 0.34 1.7 0 0 Z " fill="#73BA72" transform="translate(217,269)"/>
<path d="M0 0 C1.32 1.32 2.64 2.64 4 4 C3.67 4.66 3.34 5.32 3 6 C2.01 6 1.02 6 0 6 C-1 3 -1 3 0 0 Z M-2 5 C-1.34 5.66 -0.68 6.32 0 7 C-0.66 7 -1.32 7 -2 7 C-2 6.34 -2 5.68 -2 5 Z " fill="#61C063" transform="translate(213,263)"/>
<path d="M0 0 C0.99 0.33 1.98 0.66 3 1 C2 4 2 4 -1.0625 5.6875 C-2.031875 6.120625 -3.00125 6.55375 -4 7 C-2.79618552 4.50638429 -1.54571278 2.31856917 0 0 Z " fill="#7FBC80" transform="translate(116,222)"/>
<path d="M0 0 C0.33 0.66 0.66 1.32 1 2 C1.66 2.33 2.32 2.66 3 3 C2.34 4.32 1.68 5.64 1 7 C0.01 6.01 -0.98 5.02 -2 4 C-1.34 2.68 -0.68 1.36 0 0 Z " fill="#6CB96E" transform="translate(218,258)"/>
<path d="M0 0 C0.33 0 0.66 0 1 0 C1 1.98 1 3.96 1 6 C0.01 6.33 -0.98 6.66 -2 7 C-2 6.01 -2 5.02 -2 4 C-2.66 3.67 -3.32 3.34 -4 3 C-3.01 2.67 -2.02 2.34 -1 2 C-0.67 1.34 -0.34 0.68 0 0 Z " fill="#71CA63" transform="translate(215,230)"/>
<path d="" fill="#809F80" transform="translate(0,0)"/>
<path d="" fill="#718E71" transform="translate(0,0)"/>
</svg>
